<?xml version="1.0" encoding="utf-8"?>
<!-- Generator: Adobe Illustrator 25.2.0, SVG Export Plug-In . SVG Version: 6.00 Build 0)  -->
<svg version="1.0" id="Layer_1" xmlns="http://www.w3.org/2000/svg" xmlns:xlink="http://www.w3.org/1999/xlink" x="0px" y="0px"
	 viewBox="0 0 80 80" style="enable-background:new 0 0 80 80;" xml:space="preserve">
<path d="M20,0c-5.5,0-10,4.5-10,10v60c0,5.5,4.5,10,10,10h40c5.5,0,10-4.5,10-10V10c0-5.5-4.5-10-10-10H20z M25,10h30
	c2.8,0,5,2.2,5,5v5c0,2.8-2.2,5-5,5H25c-2.8,0-5-2.2-5-5v-5C20,12.2,22.2,10,25,10z M20,35c0-2.8,2.2-5,5-5s5,2.2,5,5s-2.2,5-5,5
	S20,37.8,20,35z M25,45c2.8,0,5,2.2,5,5s-2.2,5-5,5s-5-2.2-5-5S22.2,45,25,45z M20,65c0-2.8,2.2-5,5-5h15c2.8,0,5,2.2,5,5
	c0,2.8-2.2,5-5,5H25C22.2,70,20,67.8,20,65z M40,30c2.8,0,5,2.2,5,5s-2.2,5-5,5s-5-2.2-5-5S37.2,30,40,30z M35,50c0-2.8,2.2-5,5-5
	s5,2.2,5,5s-2.2,5-5,5S35,52.8,35,50z M55,30c2.8,0,5,2.2,5,5s-2.2,5-5,5c-2.8,0-5-2.2-5-5S52.2,30,55,30z M50,50c0-2.8,2.2-5,5-5
	c2.8,0,5,2.2,5,5s-2.2,5-5,5C52.2,55,50,52.8,50,50z M55,60c2.8,0,5,2.2,5,5c0,2.8-2.2,5-5,5c-2.8,0-5-2.2-5-5
	C50,62.2,52.2,60,55,60z"/>
</svg>
