<?xml version="1.0" encoding="utf-8"?>
<!-- Generator: Adobe Illustrator 25.2.0, SVG Export Plug-In . SVG Version: 6.00 Build 0)  -->
<svg version="1.0" id="Layer_1" xmlns="http://www.w3.org/2000/svg" xmlns:xlink="http://www.w3.org/1999/xlink" x="0px" y="0px"
	 viewBox="0 0 80 91.4" style="enable-background:new 0 0 80 91.4;" xml:space="preserve">
<path d="M17.1,0C7.7,0,0,7.7,0,17.1v57.1c0,9.5,7.7,17.1,17.1,17.1h51.4h5.7c3.2,0,5.7-2.6,5.7-5.7c0-3.2-2.6-5.7-5.7-5.7V68.6
	c3.2,0,5.7-2.6,5.7-5.7V5.7C80,2.6,77.4,0,74.3,0h-5.7H17.1z M17.1,68.6h45.7V80H17.1c-3.2,0-5.7-2.6-5.7-5.7
	C11.4,71.1,14,68.6,17.1,68.6z M22.9,25.7c0-1.6,1.3-2.9,2.9-2.9H60c1.6,0,2.9,1.3,2.9,2.9c0,1.6-1.3,2.9-2.9,2.9H25.7
	C24.1,28.6,22.9,27.3,22.9,25.7z M25.7,34.3H60c1.6,0,2.9,1.3,2.9,2.9S61.6,40,60,40H25.7c-1.6,0-2.9-1.3-2.9-2.9
	S24.1,34.3,25.7,34.3z"/>
</svg>
