<?xml version="1.0" encoding="utf-8"?>
<!-- Generator: Adobe Illustrator 25.2.0, SVG Export Plug-In . SVG Version: 6.00 Build 0)  -->
<svg version="1.0" id="Layer_1" xmlns="http://www.w3.org/2000/svg" xmlns:xlink="http://www.w3.org/1999/xlink" x="0px" y="0px"
	 viewBox="0 0 80 80" style="enable-background:new 0 0 80 80;" xml:space="preserve">
<path d="M20,0c-5.5,0-10,4.5-10,10v15h10V10h35.4l4.6,4.6V25h10V14.6c0-2.7-1-5.2-2.9-7.1l-4.6-4.6C60.6,1,58.1,0,55.4,0H20z M60,55
	v5v10H20V60v-2.5V55H60z M70,60h5c2.8,0,5-2.2,5-5V40c0-5.5-4.5-10-10-10H10C4.5,30,0,34.5,0,40v15c0,2.8,2.2,5,5,5h5v10
	c0,5.5,4.5,10,10,10h40c5.5,0,10-4.5,10-10V60z M67.5,46.2c-2.1,0-3.8-1.7-3.8-3.8c0-2.1,1.7-3.8,3.8-3.8s3.8,1.7,3.8,3.8
	C71.2,44.6,69.6,46.2,67.5,46.2z"/>
</svg>
